HIERARCHY
ROOT Hip
{
	OFFSET	0.0000	0.0000	0.0000
	CHANNELS 6 Xposition Yposition Zposition Xrotation Yrotation Zrotation
	JOINT LowerSpine
	{
		OFFSET	0.0000	8.3453	-5.1292
		CHANNELS 3 Xrotation Yrotation Zrotation
		JOINT MiddleSpine
		{
			OFFSET	10.8569	0.0000	0.0000
			CHANNELS 3 Xrotation Yrotation Zrotation
			JOINT Chest
			{
				OFFSET	15.2984	0.0000	0.0000
				CHANNELS 3 Xrotation Yrotation Zrotation
				JOINT Neck
				{
					OFFSET	25.6618	-0.5986	0.0000
					CHANNELS 3 Xrotation Yrotation Zrotation
					JOINT Head
					{
						OFFSET	8.8829	0.0000	0.0000
						CHANNELS 3 Xrotation Yrotation Zrotation
						End Site
						{
							OFFSET	19.7399	0.0000	0.0000
						}
					}
				}
				JOINT RClavicle
				{
					OFFSET	23.6878	0.0000	3.1584
					CHANNELS 3 Xrotation Yrotation Zrotation
					JOINT RShoulder
					{
						OFFSET	-15.5945	-3.9480	0.9870
						CHANNELS 3 Xrotation Yrotation Zrotation
						JOINT RForearm
						{
							OFFSET	-31.3370	0.0000	0.1974
							CHANNELS 3 Xrotation Yrotation Zrotation
							JOINT RHand
							{
								OFFSET	-26.4021	0.0000	0.0000
								CHANNELS 3 Xrotation Yrotation Zrotation
								End Site
								{
									OFFSET	-15.7919	-0.9870	0.0000
								}
							}
						}
					}
				}
				JOINT LClavicle
				{
					OFFSET	23.6878	0.0000	-3.1584
					CHANNELS 3 Xrotation Yrotation Zrotation
					JOINT LShoulder
					{
						OFFSET	-15.5945	-3.9480	-0.9870
						CHANNELS 3 Xrotation Yrotation Zrotation
						JOINT LForearm
						{
							OFFSET	-31.3370	0.0000	-0.1974
							CHANNELS 3 Xrotation Yrotation Zrotation
							JOINT LHand
							{
								OFFSET	-26.4021	0.0000	0.0000
								CHANNELS 3 Xrotation Yrotation Zrotation
								End Site
								{
									OFFSET	-15.7919	-0.9870	0.0000
								}
							}
						}
					}
				}
			}
		}
	}
	JOINT RThigh
	{
		OFFSET	-8.8829	0.4481	0.0000
		CHANNELS 3 Xrotation Yrotation Zrotation
		JOINT RShin
		{
			OFFSET	43.1316	0.0000	-0.4935
			CHANNELS 3 Xrotation Yrotation Zrotation
			JOINT RFoot
			{
				OFFSET	0.0000	-44.7256	-0.4047
				CHANNELS 3 Xrotation Yrotation Zrotation
				JOINT RToe
				{
					OFFSET	0.0000	-3.9332	12.1953
					CHANNELS 3 Xrotation Yrotation Zrotation
					End Site
					{
						OFFSET	6.7725	0.0000	0.0000
					}
				}
			}
		}
	}
	JOINT LThigh
	{
		OFFSET	8.8829	0.4481	0.0000
		CHANNELS 3 Xrotation Yrotation Zrotation
		JOINT LShin
		{
			OFFSET	43.1316	0.0000	0.4935
			CHANNELS 3 Xrotation Yrotation Zrotation
			JOINT LFoot
			{
				OFFSET	0.0000	-44.7256	0.4047
				CHANNELS 3 Xrotation Yrotation Zrotation
				JOINT LToe
				{
					OFFSET	0.0000	-3.9332	-12.1953
					CHANNELS 3 Xrotation Yrotation Zrotation
					End Site
					{
						OFFSET	6.7725	0.0000	0.0000
					}
				}
			}
		}
	}
}
MOTION
Frames:	13
Frame Time: 0.0169491000
	0.0000	93.1363	0.0000	0.000000	0.000000	0.000000	-89.999990	-90.000000	0.000000	0.000000	0.000000	0.000000	0.000000	0.000000	0.000000	0.000000	0.000000	0.000000	0.000000	0.000000	0.000000	89.999990	0.000003	-89.999990	0.129889	-2.857029	4.156837	0.255388	4.965908	-5.884634	0.000000	0.000000	0.000000	-89.999990	-0.000003	-89.999990	-0.129889	2.857029	4.156894	-0.255388	-4.965908	-5.884634	0.000000	0.000000	0.000000	-89.999990	90.000000	0.000000	89.999990	-0.000003	89.999990	0.000000	0.000000	0.000000	180.000000	90.000000	0.000000	-89.999990	90.000000	0.000000	-90.000000	-0.000003	89.999990	0.000000	0.000000	0.000000	180.000000	-90.000000	0.000000
	3.9733	92.6398	-11.2438	-3.615367	5.333810	2.228778	-89.999990	-90.000000	0.000000	-0.217678	0.297622	1.108248	-0.748751	0.974280	3.697988	0.000000	0.000000	0.000000	0.000000	0.000000	0.000000	90.000610	0.012510	-90.168090	1.854446	-3.829435	-0.848473	0.598984	8.266642	-5.924239	0.000000	0.000000	0.000000	-89.997210	0.070342	-89.054410	-0.270666	-11.739660	0.795907	-0.378583	-6.154361	-5.896570	0.000000	0.000000	0.000000	102.973100	80.696110	177.491000	89.985600	1.602864	89.998550	-4.757900	-0.650181	-0.262897	177.287700	90.000000	0.000000	-117.722900	84.238250	34.853900	-89.973940	-2.904534	89.997690	2.026186	-0.108115	0.043042	183.863700	-90.000000	0.000000
	3.4889	92.5723	-11.2188	-3.766826	4.721823	1.900816	-89.999990	-90.000000	0.000000	-0.165053	0.277931	0.929773	-0.569766	0.914394	3.100576	0.000000	0.000000	0.000000	0.000000	0.000000	0.000000	90.000180	0.003777	-90.050660	-3.987954	-3.937696	-0.420115	0.958164	11.658420	-5.986406	0.000000	0.000000	0.000000	-89.998150	0.043057	-89.421130	3.483930	-10.166340	2.299850	-0.644657	-8.701729	-5.930977	0.000000	0.000000	0.000000	100.785100	81.270360	178.825000	89.969990	3.345296	89.997450	-5.718584	-0.625042	-0.259376	177.516600	90.000000	0.000000	-113.916500	83.546710	31.623280	-89.980280	-2.197439	89.998120	1.806015	0.033208	-0.007905	183.777200	-90.000000	0.000000
	3.0255	92.4574	-11.1243	-3.795760	4.152454	1.464963	-89.999990	-90.000000	0.000000	-0.135981	0.264568	0.796602	-0.469648	0.873162	2.655958	0.000000	0.000000	0.000000	0.000000	0.000000	0.000000	89.999930	-0.001414	-89.980930	-7.821630	-4.706182	0.106789	1.416989	15.870450	-6.095650	0.000000	0.000000	0.000000	-89.999100	0.019661	-89.735550	7.310724	-8.256047	3.616454	-0.963137	-11.704860	-5.987412	0.000000	0.000000	0.000000	99.889230	82.019260	178.703800	89.953040	5.234840	89.996800	-6.847193	-0.569533	-0.242330	177.622900	90.000000	0.000000	-110.241300	82.791450	28.326270	-89.983140	-1.877244	89.998350	2.084958	0.194653	-0.064311	183.586700	-90.000000	0.000000
	2.7551	92.3773	-11.0418	-3.826384	3.710293	1.167205	-89.999990	-90.000000	0.000000	-0.125338	0.256957	0.691340	-0.430717	0.850030	2.305941	0.000000	0.000000	0.000000	0.000000	0.000000	0.000000	89.999790	-0.004346	-89.941440	-9.914404	-5.607252	0.368272	1.834124	19.553340	-6.222621	0.000000	0.000000	0.000000	-90.000050	-0.001110	-90.014800	9.680935	-6.500181	4.602880	-1.279623	-14.625700	-6.059519	0.000000	0.000000	0.000000	99.694660	82.501490	178.206700	89.941280	6.544960	89.996670	-7.595155	-0.416721	-0.177396	177.627200	90.000000	0.000000	-108.510000	82.296400	26.852510	-89.984650	-1.708914	89.998480	2.310310	0.302611	-0.103599	183.510300	-90.000000	0.000000
	2.6630	92.3389	-11.0227	-3.894806	3.587497	1.058961	-89.999990	-90.000000	0.000000	-0.127502	0.255485	0.601195	-0.434566	0.846775	2.007107	0.000000	0.000000	0.000000	0.000000	0.000000	0.000000	89.999650	-0.007455	-89.899730	-10.973800	-6.346387	0.362692	2.106159	21.869170	-6.318849	0.000000	0.000000	0.000000	-90.000920	-0.018414	-90.247530	10.383170	-4.986609	5.469607	-1.623662	-17.714180	-6.155365	0.000000	0.000000	0.000000	99.673840	82.661990	177.998200	89.936420	7.085216	89.996680	-7.921428	-0.308371	-0.124173	177.690300	90.000000	0.000000	-108.058300	82.110370	26.492540	-89.984590	-1.716224	89.998470	2.436162	0.254655	-0.087796	183.498800	-90.000000	0.000000
	2.5908	92.3189	-11.0479	-3.955569	3.729755	0.977829	-89.999990	-90.000000	0.000000	-0.137849	0.260576	0.516409	-0.466804	0.864833	1.725802	0.000000	0.000000	0.000000	0.000000	0.000000	0.000000	89.999290	-0.015323	-89.793920	-11.863530	-7.204220	0.241310	2.352651	23.904450	-6.414727	0.000000	0.000000	0.000000	-90.001580	-0.030807	-90.414200	10.129700	-3.338993	6.623332	-2.116122	-21.952620	-6.322566	0.000000	0.000000	0.000000	99.696650	82.816240	177.923800	89.934490	7.298390	89.996700	-8.051756	-0.526109	-0.218842	177.791100	90.000000	0.000000	-107.711700	81.942410	26.025490	-89.982220	-1.980866	89.998280	2.729543	-0.121635	0.051189	183.272600	-90.000000	0.000000
	2.4927	92.3138	-11.0664	-4.038032	3.896901	0.863922	-89.999990	-90.000000	0.000000	-0.154500	0.271830	0.434136	-0.522245	0.902955	1.451810	0.000000	0.000000	0.000000	0.000000	0.000000	0.000000	89.998640	-0.030645	-89.587860	-13.480200	-8.453450	0.043047	2.790454	27.364250	-6.604219	0.000000	0.000000	0.000000	-90.001910	-0.036856	-90.495580	8.897751	-1.374567	8.101037	-2.823026	-27.613520	-6.619254	0.000000	0.000000	0.000000	99.747570	83.038970	177.897800	89.933480	7.411310	89.996730	-7.994991	-0.878760	-0.384170	177.634900	90.000000	0.000000	-107.195600	81.706780	25.391250	-89.979490	-2.284992	89.998070	3.085840	-0.665379	0.259892	182.903000	-90.000000	0.000000
	2.4211	92.3268	-11.0407	-4.201828	4.010349	0.769107	-89.999990	-90.000000	0.000000	-0.177080	0.287255	0.358221	-0.599173	0.954642	1.198318	0.000000	0.000000	0.000000	0.000000	0.000000	0.000000	89.997730	-0.054416	-89.268360	-16.858210	-10.067110	-0.345034	3.598581	33.211780	-7.012331	0.000000	0.000000	0.000000	-90.001860	-0.035909	-90.482790	7.034123	1.090088	9.651623	-3.758044	-34.282920	-7.100923	0.000000	0.000000	0.000000	99.824490	83.211560	178.031000	89.933960	7.358448	89.996720	-7.794332	-0.964813	-0.428968	177.308100	90.000000	0.000000	-106.711800	81.517220	25.009380	-89.978690	-2.375900	89.998010	3.191501	-0.973284	0.378181	182.762400	-90.000000	0.000000
	2.3940	92.3552	-11.0002	-4.378036	4.104157	0.722595	-89.999990	-90.000000	0.000000	-0.202626	0.302987	0.297005	-0.688467	1.008193	0.990292	0.000000	0.000000	0.000000	0.000000	0.000000	0.000000	89.996770	-0.085416	-88.851810	-22.193820	-11.783980	-1.076283	4.914888	41.274200	-7.810955	0.000000	0.000000	0.000000	-90.001460	-0.028592	-90.384380	5.674556	3.934303	11.497560	-4.920777	-41.306450	-7.814841	0.000000	0.000000	0.000000	99.909230	83.291630	178.272400	89.936200	7.109718	89.996690	-7.541213	-0.784146	-0.345024	177.060100	90.000000	0.000000	-106.455600	81.439270	24.970950	-89.979730	-2.260622	89.998090	2.997509	-0.827017	0.312873	182.906100	-90.000000	0.000000
	2.3682	92.3862	-10.9890	-4.452116	4.088684	0.696457	-89.999990	-90.000000	0.000000	-0.223154	0.314288	0.258898	-0.767915	1.050314	0.847269	0.000000	0.000000	0.000000	0.000000	0.000000	0.000000	89.995950	-0.120275	-88.383510	-28.606440	-13.441560	-2.140497	6.845637	50.288610	-9.199048	0.000000	0.000000	0.000000	-90.000840	-0.016920	-90.227430	5.231615	6.390719	14.081310	-6.264056	-47.877770	-8.759472	0.000000	0.000000	0.000000	99.910760	83.321440	178.456400	89.938600	6.842130	89.996670	-7.346589	-0.546971	-0.236406	177.021600	90.000000	0.000000	-106.410500	81.425390	25.083530	-89.981450	-2.068746	89.998210	2.747102	-0.392958	0.138617	182.949300	-90.000000	0.000000
	2.3276	92.4096	-11.0001	-4.437207	4.004109	0.678993	-89.999990	-90.000000	0.000000	-0.258299	0.328618	0.220423	-0.809777	1.072259	0.770031	0.000000	0.000000	0.000000	0.000000	0.000000	0.000000	89.995420	-0.154163	-87.928280	-34.704000	-15.062690	-3.607026	9.500417	58.787240	-11.367460	0.000000	0.000000	0.000000	-90.000180	-0.003586	-90.048110	5.179338	7.918092	17.367420	-7.720459	-53.500250	-9.887701	0.000000	0.000000	0.000000	99.783190	83.334850	178.541600	89.938990	6.798732	89.996680	-7.330967	-0.439721	-0.188202	177.243300	90.000000	0.000000	-106.443200	81.422940	25.180620	-89.982860	-1.910310	89.998320	2.590305	-0.002358	-0.008712	182.850600	-90.000000	0.000000
	2.3058	92.4209	-11.0294	-4.375706	4.049412	0.690463	-89.999990	-90.000000	0.000000	-0.251256	0.325080	0.219990	-0.797751	1.074985	0.738139	0.000000	0.000000	0.000000	0.000000	0.000000	0.000000	89.995190	-0.181673	-87.558760	-39.162690	-16.251710	-5.644484	13.062230	65.975710	-14.529850	0.000000	0.000000	0.000000	-89.999560	0.009443	-89.872960	4.819450	8.790304	20.859340	-9.227423	-58.068740	-11.134870	0.000000	0.000000	0.000000	99.524950	83.334340	178.574200	89.936420	7.084946	89.996690	-7.464229	-0.572616	-0.247567	177.477700	90.000000	0.000000	-106.567900	81.437870	25.207630	-89.982810	-1.916455	89.998320	2.531878	0.127584	-0.055152	182.804700	-90.000000	0.000000
